<?xml version="1.0" encoding="UTF-8" standalone="no"?>
<!DOCTYPE svg PUBLIC "-//W3C//DTD SVG 1.1//EN"
 "http://www.w3.org/Graphics/SVG/1.1/DTD/svg11.dtd">
<!-- Generated by graphviz version 7.1.0 (20230121.1956)
 -->
<!-- Title: controllers_diagram Pages: 1 -->
<svg width="543pt" height="599pt"
 viewBox="0.00 0.00 543.00 599.00" xmlns="http://www.w3.org/2000/svg" xmlns:xlink="http://www.w3.org/1999/xlink">
<g id="graph0" class="graph" transform="scale(1 1) rotate(0) translate(4 595)">
<title>controllers_diagram</title>
<polygon fill="none" stroke="none" points="-4,4 -4,-595 539,-595 539,4 -4,4"/>
<!-- _diagram_info -->
<g id="node1" class="node">
<title>_diagram_info</title>
<text text-anchor="start" x="331" y="-63.6" font-family="Times,serif" font-size="13.00">Controllers diagram</text>
<text text-anchor="start" x="331" y="-49.6" font-family="Times,serif" font-size="13.00">Date: Mar 20 2023 &#45; 19:36</text>
<text text-anchor="start" x="331" y="-35.6" font-family="Times,serif" font-size="13.00">Migration version: 20230311152021</text>
<text text-anchor="start" x="331" y="-21.6" font-family="Times,serif" font-size="13.00">Generated by RailRoady 1.6.0</text>
<text text-anchor="start" x="331" y="-7.6" font-family="Times,serif" font-size="13.00">http://railroady.prestonlee.com</text>
</g>
<!-- Admin::DashboardController -->
<g id="node2" class="node">
<title>Admin::DashboardController</title>
<path fill="none" stroke="black" d="M202,-342.5C202,-342.5 354,-342.5 354,-342.5 360,-342.5 366,-348.5 366,-354.5 366,-354.5 366,-438.5 366,-438.5 366,-444.5 360,-450.5 354,-450.5 354,-450.5 202,-450.5 202,-450.5 196,-450.5 190,-444.5 190,-438.5 190,-438.5 190,-354.5 190,-354.5 190,-348.5 196,-342.5 202,-342.5"/>
<text text-anchor="middle" x="278" y="-435.3" font-family="Times,serif" font-size="14.00">Admin::DashboardController</text>
<polyline fill="none" stroke="black" points="190,-427.5 366,-427.5"/>
<text text-anchor="start" x="198" y="-412.3" font-family="Times,serif" font-size="14.00">index</text>
<polyline fill="none" stroke="black" points="190,-404.5 366,-404.5"/>
<polyline fill="none" stroke="black" points="190,-380.5 366,-380.5"/>
<text text-anchor="start" x="198" y="-365.3" font-family="Times,serif" font-size="14.00">_layout</text>
<text text-anchor="start" x="198" y="-350.3" font-family="Times,serif" font-size="14.00">_layout_from_proc</text>
</g>
<!-- Admin::UsersController -->
<g id="node3" class="node">
<title>Admin::UsersController</title>
<path fill="none" stroke="black" d="M12,-437.5C12,-437.5 137,-437.5 137,-437.5 143,-437.5 149,-443.5 149,-449.5 149,-449.5 149,-578.5 149,-578.5 149,-584.5 143,-590.5 137,-590.5 137,-590.5 12,-590.5 12,-590.5 6,-590.5 0,-584.5 0,-578.5 0,-578.5 0,-449.5 0,-449.5 0,-443.5 6,-437.5 12,-437.5"/>
<text text-anchor="middle" x="74.5" y="-575.3" font-family="Times,serif" font-size="14.00">Admin::UsersController</text>
<polyline fill="none" stroke="black" points="0,-567.5 149,-567.5"/>
<text text-anchor="start" x="8" y="-552.3" font-family="Times,serif" font-size="14.00">index</text>
<text text-anchor="start" x="8" y="-537.3" font-family="Times,serif" font-size="14.00">update</text>
<polyline fill="none" stroke="black" points="0,-529.5 149,-529.5"/>
<polyline fill="none" stroke="black" points="0,-505.5 149,-505.5"/>
<text text-anchor="start" x="8" y="-490.3" font-family="Times,serif" font-size="14.00">_layout</text>
<text text-anchor="start" x="8" y="-475.3" font-family="Times,serif" font-size="14.00">_layout_from_proc</text>
<text text-anchor="start" x="8" y="-460.3" font-family="Times,serif" font-size="14.00">set_user</text>
<text text-anchor="start" x="8" y="-445.3" font-family="Times,serif" font-size="14.00">update_user_params</text>
</g>
<!-- ApplicationController -->
<g id="node4" class="node">
<title>ApplicationController</title>
<path fill="none" stroke="black" d="M335,-114.5C335,-114.5 484,-114.5 484,-114.5 490,-114.5 496,-120.5 496,-126.5 496,-126.5 496,-285.5 496,-285.5 496,-291.5 490,-297.5 484,-297.5 484,-297.5 335,-297.5 335,-297.5 329,-297.5 323,-291.5 323,-285.5 323,-285.5 323,-126.5 323,-126.5 323,-120.5 329,-114.5 335,-114.5"/>
<text text-anchor="middle" x="409.5" y="-282.3" font-family="Times,serif" font-size="14.00">ApplicationController</text>
<polyline fill="none" stroke="black" points="323,-274.5 496,-274.5"/>
<text text-anchor="start" x="331" y="-259.3" font-family="Times,serif" font-size="14.00">ensure_admin!</text>
<text text-anchor="start" x="331" y="-244.3" font-family="Times,serif" font-size="14.00">ensure_department!</text>
<text text-anchor="start" x="331" y="-229.3" font-family="Times,serif" font-size="14.00">ensure_manager_or_above!</text>
<text text-anchor="start" x="331" y="-214.3" font-family="Times,serif" font-size="14.00">set_current_task</text>
<polyline fill="none" stroke="black" points="323,-206.5 496,-206.5"/>
<polyline fill="none" stroke="black" points="323,-182.5 496,-182.5"/>
<text text-anchor="start" x="331" y="-167.3" font-family="Times,serif" font-size="14.00">_layout</text>
<text text-anchor="start" x="331" y="-152.3" font-family="Times,serif" font-size="14.00">_layout_from_proc</text>
<text text-anchor="start" x="331" y="-137.3" font-family="Times,serif" font-size="14.00">current_task</text>
<text text-anchor="start" x="331" y="-122.3" font-family="Times,serif" font-size="14.00">has_access_to_current_task?</text>
</g>
<!-- ProjectsController -->
<g id="node5" class="node">
<title>ProjectsController</title>
<path fill="none" stroke="black" d="M411,-342.5C411,-342.5 509,-342.5 509,-342.5 515,-342.5 521,-348.5 521,-354.5 521,-354.5 521,-558.5 521,-558.5 521,-564.5 515,-570.5 509,-570.5 509,-570.5 411,-570.5 411,-570.5 405,-570.5 399,-564.5 399,-558.5 399,-558.5 399,-354.5 399,-354.5 399,-348.5 405,-342.5 411,-342.5"/>
<text text-anchor="middle" x="460" y="-555.3" font-family="Times,serif" font-size="14.00">ProjectsController</text>
<polyline fill="none" stroke="black" points="399,-547.5 521,-547.5"/>
<text text-anchor="start" x="407" y="-532.3" font-family="Times,serif" font-size="14.00">create</text>
<text text-anchor="start" x="407" y="-517.3" font-family="Times,serif" font-size="14.00">destroy</text>
<text text-anchor="start" x="407" y="-502.3" font-family="Times,serif" font-size="14.00">edit</text>
<text text-anchor="start" x="407" y="-487.3" font-family="Times,serif" font-size="14.00">index</text>
<text text-anchor="start" x="407" y="-472.3" font-family="Times,serif" font-size="14.00">new</text>
<text text-anchor="start" x="407" y="-457.3" font-family="Times,serif" font-size="14.00">show</text>
<text text-anchor="start" x="407" y="-442.3" font-family="Times,serif" font-size="14.00">update</text>
<polyline fill="none" stroke="black" points="399,-434.5 521,-434.5"/>
<polyline fill="none" stroke="black" points="399,-410.5 521,-410.5"/>
<text text-anchor="start" x="407" y="-395.3" font-family="Times,serif" font-size="14.00">_layout</text>
<text text-anchor="start" x="407" y="-380.3" font-family="Times,serif" font-size="14.00">_layout_from_proc</text>
<text text-anchor="start" x="407" y="-365.3" font-family="Times,serif" font-size="14.00">project_params</text>
<text text-anchor="start" x="407" y="-350.3" font-family="Times,serif" font-size="14.00">set_project</text>
</g>
<!-- TasksController -->
<g id="node6" class="node">
<title>TasksController</title>
<path fill="none" stroke="black" d="M183,-57.5C183,-57.5 281,-57.5 281,-57.5 287,-57.5 293,-63.5 293,-69.5 293,-69.5 293,-288.5 293,-288.5 293,-294.5 287,-300.5 281,-300.5 281,-300.5 183,-300.5 183,-300.5 177,-300.5 171,-294.5 171,-288.5 171,-288.5 171,-69.5 171,-69.5 171,-63.5 177,-57.5 183,-57.5"/>
<text text-anchor="middle" x="232" y="-285.3" font-family="Times,serif" font-size="14.00">TasksController</text>
<polyline fill="none" stroke="black" points="171,-277.5 293,-277.5"/>
<text text-anchor="start" x="179" y="-262.3" font-family="Times,serif" font-size="14.00">create</text>
<text text-anchor="start" x="179" y="-247.3" font-family="Times,serif" font-size="14.00">destroy</text>
<text text-anchor="start" x="179" y="-232.3" font-family="Times,serif" font-size="14.00">edit</text>
<text text-anchor="start" x="179" y="-217.3" font-family="Times,serif" font-size="14.00">index</text>
<text text-anchor="start" x="179" y="-202.3" font-family="Times,serif" font-size="14.00">new</text>
<text text-anchor="start" x="179" y="-187.3" font-family="Times,serif" font-size="14.00">show</text>
<text text-anchor="start" x="179" y="-172.3" font-family="Times,serif" font-size="14.00">update</text>
<polyline fill="none" stroke="black" points="171,-164.5 293,-164.5"/>
<polyline fill="none" stroke="black" points="171,-140.5 293,-140.5"/>
<text text-anchor="start" x="179" y="-125.3" font-family="Times,serif" font-size="14.00">_layout</text>
<text text-anchor="start" x="179" y="-110.3" font-family="Times,serif" font-size="14.00">_layout_from_proc</text>
<text text-anchor="start" x="179" y="-95.3" font-family="Times,serif" font-size="14.00">set_project</text>
<text text-anchor="start" x="179" y="-80.3" font-family="Times,serif" font-size="14.00">set_task</text>
<text text-anchor="start" x="179" y="-65.3" font-family="Times,serif" font-size="14.00">task_params</text>
</g>
</g>
</svg>
