<?xml version="1.0" encoding="UTF-8" standalone="no"?>
<!DOCTYPE svg PUBLIC "-//W3C//DTD SVG 1.1//EN"
 "http://www.w3.org/Graphics/SVG/1.1/DTD/svg11.dtd">
<!-- Generated by graphviz version 7.1.0 (20230121.1956)
 -->
<!-- Title: models_diagram Pages: 1 -->
<svg width="861pt" height="506pt"
 viewBox="0.00 0.00 860.50 506.00" xmlns="http://www.w3.org/2000/svg" xmlns:xlink="http://www.w3.org/1999/xlink">
<g id="graph0" class="graph" transform="scale(1 1) rotate(0) translate(4 502)">
<title>models_diagram</title>
<polygon fill="none" stroke="none" points="-4,4 -4,-502 856.5,-502 856.5,4 -4,4"/>
<!-- _diagram_info -->
<g id="node1" class="node">
<title>_diagram_info</title>
<text text-anchor="start" x="8" y="-476.6" font-family="Times,serif" font-size="13.00">Models diagram</text>
<text text-anchor="start" x="8" y="-462.6" font-family="Times,serif" font-size="13.00">Date: Mar 20 2023 &#45; 19:36</text>
<text text-anchor="start" x="8" y="-448.6" font-family="Times,serif" font-size="13.00">Migration version: 20230311152021</text>
<text text-anchor="start" x="8" y="-434.6" font-family="Times,serif" font-size="13.00">Generated by RailRoady 1.6.0</text>
<text text-anchor="start" x="8" y="-420.6" font-family="Times,serif" font-size="13.00">http://railroady.prestonlee.com</text>
</g>
<!-- ApplicationRecord -->
<g id="node2" class="node">
<title>ApplicationRecord</title>
<ellipse fill="none" stroke="black" cx="307" cy="-452" rx="77.19" ry="18"/>
<text text-anchor="middle" x="307" y="-448.3" font-family="Times,serif" font-size="14.00">ApplicationRecord</text>
</g>
<!-- Organization -->
<g id="node3" class="node">
<title>Organization</title>
<path fill="none" stroke="black" d="M414,-406.5C414,-406.5 650,-406.5 650,-406.5 656,-406.5 662,-412.5 662,-418.5 662,-418.5 662,-485.5 662,-485.5 662,-491.5 656,-497.5 650,-497.5 650,-497.5 414,-497.5 414,-497.5 408,-497.5 402,-491.5 402,-485.5 402,-485.5 402,-418.5 402,-418.5 402,-412.5 408,-406.5 414,-406.5"/>
<text text-anchor="middle" x="532" y="-482.3" font-family="Times,serif" font-size="14.00">Organization</text>
<polyline fill="none" stroke="black" points="402,-474.5 662,-474.5"/>
<text text-anchor="start" x="410" y="-459.3" font-family="Times,serif" font-size="14.00">id :bigint</text>
<text text-anchor="start" x="410" y="-444.3" font-family="Times,serif" font-size="14.00">name :character varying</text>
<text text-anchor="start" x="410" y="-429.3" font-family="Times,serif" font-size="14.00">created_at :timestamp(6) without time zone</text>
<text text-anchor="start" x="410" y="-414.3" font-family="Times,serif" font-size="14.00">updated_at :timestamp(6) without time zone</text>
</g>
<!-- Project -->
<g id="node4" class="node">
<title>Project</title>
<path fill="none" stroke="black" d="M257,-218.5C257,-218.5 493,-218.5 493,-218.5 499,-218.5 505,-224.5 505,-230.5 505,-230.5 505,-327.5 505,-327.5 505,-333.5 499,-339.5 493,-339.5 493,-339.5 257,-339.5 257,-339.5 251,-339.5 245,-333.5 245,-327.5 245,-327.5 245,-230.5 245,-230.5 245,-224.5 251,-218.5 257,-218.5"/>
<text text-anchor="middle" x="375" y="-324.3" font-family="Times,serif" font-size="14.00">Project</text>
<polyline fill="none" stroke="black" points="245,-316.5 505,-316.5"/>
<text text-anchor="start" x="253" y="-301.3" font-family="Times,serif" font-size="14.00">id :bigint</text>
<text text-anchor="start" x="253" y="-286.3" font-family="Times,serif" font-size="14.00">name :character varying</text>
<text text-anchor="start" x="253" y="-271.3" font-family="Times,serif" font-size="14.00">description :text</text>
<text text-anchor="start" x="253" y="-256.3" font-family="Times,serif" font-size="14.00">created_at :timestamp(6) without time zone</text>
<text text-anchor="start" x="253" y="-241.3" font-family="Times,serif" font-size="14.00">updated_at :timestamp(6) without time zone</text>
<text text-anchor="start" x="253" y="-226.3" font-family="Times,serif" font-size="14.00">organization_id :integer</text>
</g>
<!-- Organization&#45;&gt;Project -->
<g id="edge1" class="edge">
<title>Organization&#45;&gt;Project</title>
<path fill="none" stroke="#952530" d="M484.4,-399.16C469.12,-382.51 451.98,-363.84 435.88,-346.31"/>
<polygon fill="#952530" stroke="#952530" points="484.4,-399.15 487.85,-409.56 487.78,-402.84 491.16,-406.52 491.16,-406.52 491.16,-406.52 487.78,-402.84 494.47,-403.47 484.4,-399.15 484.4,-399.15"/>
<polygon fill="#952530" stroke="#952530" points="436.29,-346.76 432.84,-336.35 432.91,-343.08 429.53,-339.39 429.53,-339.39 429.53,-339.39 432.91,-343.08 426.21,-342.44 436.29,-346.76 436.29,-346.76"/>
</g>
<!-- User -->
<g id="node6" class="node">
<title>User</title>
<path fill="none" stroke="black" d="M535.5,-188.5C535.5,-188.5 840.5,-188.5 840.5,-188.5 846.5,-188.5 852.5,-194.5 852.5,-200.5 852.5,-200.5 852.5,-357.5 852.5,-357.5 852.5,-363.5 846.5,-369.5 840.5,-369.5 840.5,-369.5 535.5,-369.5 535.5,-369.5 529.5,-369.5 523.5,-363.5 523.5,-357.5 523.5,-357.5 523.5,-200.5 523.5,-200.5 523.5,-194.5 529.5,-188.5 535.5,-188.5"/>
<text text-anchor="middle" x="688" y="-354.3" font-family="Times,serif" font-size="14.00">User</text>
<polyline fill="none" stroke="black" points="523.5,-346.5 852.5,-346.5"/>
<text text-anchor="start" x="531.5" y="-331.3" font-family="Times,serif" font-size="14.00">organization_id :integer</text>
<text text-anchor="start" x="531.5" y="-316.3" font-family="Times,serif" font-size="14.00">email :character varying</text>
<text text-anchor="start" x="531.5" y="-301.3" font-family="Times,serif" font-size="14.00">encrypted_password :character varying</text>
<text text-anchor="start" x="531.5" y="-286.3" font-family="Times,serif" font-size="14.00">reset_password_token :character varying</text>
<text text-anchor="start" x="531.5" y="-271.3" font-family="Times,serif" font-size="14.00">reset_password_sent_at :timestamp(6) without time zone</text>
<text text-anchor="start" x="531.5" y="-256.3" font-family="Times,serif" font-size="14.00">remember_created_at :timestamp(6) without time zone</text>
<text text-anchor="start" x="531.5" y="-241.3" font-family="Times,serif" font-size="14.00">created_at :timestamp(6) without time zone</text>
<text text-anchor="start" x="531.5" y="-226.3" font-family="Times,serif" font-size="14.00">updated_at :timestamp(6) without time zone</text>
<text text-anchor="start" x="531.5" y="-211.3" font-family="Times,serif" font-size="14.00">role :integer</text>
<text text-anchor="start" x="531.5" y="-196.3" font-family="Times,serif" font-size="14.00">id :bigint</text>
</g>
<!-- Organization&#45;&gt;User -->
<g id="edge2" class="edge">
<title>Organization&#45;&gt;User</title>
<path fill="none" stroke="#661d94" d="M579.1,-399.37C585.75,-392.08 592.77,-384.39 599.89,-376.58"/>
<polygon fill="#661d94" stroke="#661d94" points="579.32,-399.13 569.26,-403.49 575.95,-402.82 572.58,-406.52 572.58,-406.52 572.58,-406.52 575.95,-402.82 575.9,-409.55 579.32,-399.13 579.32,-399.13"/>
<polygon fill="#661d94" stroke="#661d94" points="599.72,-376.77 609.79,-372.41 603.09,-373.07 606.46,-369.38 606.46,-369.38 606.46,-369.38 603.09,-373.07 603.14,-366.34 599.72,-376.77 599.72,-376.77"/>
</g>
<!-- Task -->
<g id="node5" class="node">
<title>Task</title>
<path fill="none" stroke="black" d="M257,-0.5C257,-0.5 493,-0.5 493,-0.5 499,-0.5 505,-6.5 505,-12.5 505,-12.5 505,-139.5 505,-139.5 505,-145.5 499,-151.5 493,-151.5 493,-151.5 257,-151.5 257,-151.5 251,-151.5 245,-145.5 245,-139.5 245,-139.5 245,-12.5 245,-12.5 245,-6.5 251,-0.5 257,-0.5"/>
<text text-anchor="middle" x="375" y="-136.3" font-family="Times,serif" font-size="14.00">Task</text>
<polyline fill="none" stroke="black" points="245,-128.5 505,-128.5"/>
<text text-anchor="start" x="253" y="-113.3" font-family="Times,serif" font-size="14.00">department :integer</text>
<text text-anchor="start" x="253" y="-98.3" font-family="Times,serif" font-size="14.00">name :character varying</text>
<text text-anchor="start" x="253" y="-83.3" font-family="Times,serif" font-size="14.00">description :text</text>
<text text-anchor="start" x="253" y="-68.3" font-family="Times,serif" font-size="14.00">status :integer</text>
<text text-anchor="start" x="253" y="-53.3" font-family="Times,serif" font-size="14.00">project_id :bigint</text>
<text text-anchor="start" x="253" y="-38.3" font-family="Times,serif" font-size="14.00">created_at :timestamp(6) without time zone</text>
<text text-anchor="start" x="253" y="-23.3" font-family="Times,serif" font-size="14.00">updated_at :timestamp(6) without time zone</text>
<text text-anchor="start" x="253" y="-8.3" font-family="Times,serif" font-size="14.00">id :bigint</text>
</g>
<!-- Project&#45;&gt;Task -->
<g id="edge3" class="edge">
<title>Project&#45;&gt;Task</title>
<path fill="none" stroke="#a0d1ce" d="M375,-208.69C375,-193.36 375,-176.95 375,-161.1"/>
<polygon fill="#a0d1ce" stroke="#a0d1ce" points="375,-208.51 370.5,-218.51 375,-213.51 375,-218.51 375,-218.51 375,-218.51 375,-213.51 379.5,-218.51 375,-208.51 375,-208.51"/>
<polygon fill="#a0d1ce" stroke="#a0d1ce" points="375,-161.32 379.5,-151.32 375,-156.32 375,-151.32 375,-151.32 375,-151.32 375,-156.32 370.5,-151.32 375,-161.32 375,-161.32"/>
</g>
</g>
</svg>
