<?xml version="1.0" encoding="UTF-8" standalone="no"?>
<!DOCTYPE svg PUBLIC "-//W3C//DTD SVG 1.1//EN"
 "http://www.w3.org/Graphics/SVG/1.1/DTD/svg11.dtd">
<!-- Generated by graphviz version 7.1.0 (20230121.1956)
 -->
<!-- Title: models_diagram Pages: 1 -->
<svg width="534pt" height="230pt"
 viewBox="0.00 0.00 534.30 230.00" xmlns="http://www.w3.org/2000/svg" xmlns:xlink="http://www.w3.org/1999/xlink">
<g id="graph0" class="graph" transform="scale(1 1) rotate(0) translate(4 226)">
<title>models_diagram</title>
<polygon fill="none" stroke="none" points="-4,4 -4,-226 530.3,-226 530.3,4 -4,4"/>
<!-- _diagram_info -->
<g id="node1" class="node">
<title>_diagram_info</title>
<text text-anchor="start" x="8" y="-207.6" font-family="Times,serif" font-size="13.00">Models diagram</text>
<text text-anchor="start" x="8" y="-193.6" font-family="Times,serif" font-size="13.00">Date: Mar 20 2023 &#45; 19:36</text>
<text text-anchor="start" x="8" y="-179.6" font-family="Times,serif" font-size="13.00">Migration version: 20230311152021</text>
<text text-anchor="start" x="8" y="-165.6" font-family="Times,serif" font-size="13.00">Generated by RailRoady 1.6.0</text>
<text text-anchor="start" x="8" y="-151.6" font-family="Times,serif" font-size="13.00">http://railroady.prestonlee.com</text>
</g>
<!-- ApplicationRecord -->
<g id="node2" class="node">
<title>ApplicationRecord</title>
<ellipse fill="none" stroke="black" cx="307" cy="-183" rx="77.19" ry="18"/>
<text text-anchor="middle" x="307" y="-179.3" font-family="Times,serif" font-size="14.00">ApplicationRecord</text>
</g>
<!-- Organization -->
<g id="node3" class="node">
<title>Organization</title>
<ellipse fill="none" stroke="black" cx="459" cy="-183" rx="56.59" ry="18"/>
<text text-anchor="middle" x="459" y="-179.3" font-family="Times,serif" font-size="14.00">Organization</text>
</g>
<!-- Project -->
<g id="node4" class="node">
<title>Project</title>
<ellipse fill="none" stroke="black" cx="418" cy="-90" rx="36" ry="18"/>
<text text-anchor="middle" x="418" y="-86.3" font-family="Times,serif" font-size="14.00">Project</text>
</g>
<!-- Organization&#45;&gt;Project -->
<g id="edge1" class="edge">
<title>Organization&#45;&gt;Project</title>
<path fill="none" stroke="#9a49dd" d="M447.22,-155.86C441.7,-143.61 435.15,-129.06 429.65,-116.85"/>
<polygon fill="#9a49dd" stroke="#9a49dd" points="447.18,-155.77 447.19,-166.73 449.23,-160.32 451.29,-164.88 451.29,-164.88 451.29,-164.88 449.23,-160.32 455.39,-163.04 447.18,-155.77 447.18,-155.77"/>
<polygon fill="#9a49dd" stroke="#9a49dd" points="429.79,-117.16 429.78,-106.19 427.73,-112.6 425.68,-108.04 425.68,-108.04 425.68,-108.04 427.73,-112.6 421.57,-109.89 429.79,-117.16 429.79,-117.16"/>
</g>
<!-- User -->
<g id="node6" class="node">
<title>User</title>
<ellipse fill="none" stroke="black" cx="499" cy="-90" rx="27.1" ry="18"/>
<text text-anchor="middle" x="499" y="-86.3" font-family="Times,serif" font-size="14.00">User</text>
</g>
<!-- Organization&#45;&gt;User -->
<g id="edge2" class="edge">
<title>Organization&#45;&gt;User</title>
<path fill="none" stroke="#82deef" d="M470.52,-155.8C475.94,-143.47 482.38,-128.81 487.77,-116.55"/>
<polygon fill="#82deef" stroke="#82deef" points="470.55,-155.73 462.4,-163.07 468.54,-160.31 466.52,-164.88 466.52,-164.88 466.52,-164.88 468.54,-160.31 470.64,-166.69 470.55,-155.73 470.55,-155.73"/>
<polygon fill="#82deef" stroke="#82deef" points="487.62,-116.89 495.76,-109.54 489.63,-112.31 491.65,-107.73 491.65,-107.73 491.65,-107.73 489.63,-112.31 487.53,-105.92 487.62,-116.89 487.62,-116.89"/>
</g>
<!-- Task -->
<g id="node5" class="node">
<title>Task</title>
<ellipse fill="none" stroke="black" cx="418" cy="-18" rx="27.9" ry="18"/>
<text text-anchor="middle" x="418" y="-14.3" font-family="Times,serif" font-size="14.00">Task</text>
</g>
<!-- Project&#45;&gt;Task -->
<g id="edge3" class="edge">
<title>Project&#45;&gt;Task</title>
<path fill="none" stroke="#90f6d9" d="M418,-61.95C418,-56.65 418,-51.1 418,-45.81"/>
<polygon fill="#90f6d9" stroke="#90f6d9" points="418,-61.7 413.5,-71.7 418,-66.7 418,-71.7 418,-71.7 418,-71.7 418,-66.7 422.5,-71.7 418,-61.7 418,-61.7"/>
<polygon fill="#90f6d9" stroke="#90f6d9" points="418,-46.1 422.5,-36.1 418,-41.1 418,-36.1 418,-36.1 418,-36.1 418,-41.1 413.5,-36.1 418,-46.1 418,-46.1"/>
</g>
</g>
</svg>
